<svg xmlns="http://www.w3.org/2000/svg" width="519" height="166" viewBox="0 0 519 166" fill="currentColor">
  <path
    d="M104.654 100.456C102.094 102.376 99.4063 103.784 96.5903 104.68C93.8383 105.512 91.0863 105.736 88.3343 105.352C85.5823 104.968 83.2143 103.784 81.2303 101.8C79.4383 107.496 78.2223 113.128 77.5823 118.696C77.3263 119.72 76.8783 120.648 76.2383 121.48C75.0863 124.872 72.5583 127.144 68.6543 128.296C64.8143 129.384 61.2303 129.192 57.9023 127.72C56.3663 127.016 55.0862 125.992 54.0622 124.648C53.0382 123.304 52.5262 121.672 52.5262 119.752C56.9423 104.456 61.1983 91.912 65.2943 82.12C66.1903 80.072 66.8943 78.408 67.4062 77.128C67.9823 75.848 68.4943 74.76 68.9423 73.864C69.3903 72.968 69.7743 72.2 70.0943 71.56C70.4783 70.856 70.9263 70.088 71.4383 69.256C72.5903 67.336 73.9023 65.096 75.3743 62.536C76.9103 59.912 78.1903 57.96 79.2143 56.68C80.3023 55.4 81.4223 54.312 82.5743 53.416C83.7903 52.456 85.1023 51.56 86.5103 50.728C87.9823 49.896 89.8063 48.808 91.9823 47.464C94.1583 46.12 96.4623 45.32 98.8943 45.064C101.39 44.744 103.758 44.936 105.998 45.64C110.734 47.112 114.222 50.408 116.462 55.528C118.382 60.264 118.702 66.632 117.422 74.632C115.438 86.856 111.182 95.464 104.654 100.456ZM84.5903 91.912C89.8383 90.76 93.4863 87.336 95.5343 81.64C97.2623 76.84 97.6143 71.4 96.5903 65.32C95.1183 67.816 93.7743 70.408 92.5583 73.096C91.4063 75.784 90.3503 78.184 89.3903 80.296C87.2783 85.032 85.6783 88.904 84.5903 91.912ZM157.593 79.816L157.977 79.912C158.105 79.912 158.169 79.944 158.169 80.008C159.833 79.368 161.209 79.848 162.297 81.448C163.001 82.536 163.545 84.2 163.929 86.44C164.057 89.512 163.737 93.768 162.969 99.208C161.497 110.216 160.697 116.776 160.569 118.888C160.697 121.128 159.321 122.664 156.441 123.496C153.945 124.264 151.449 124.232 148.953 123.4C146.329 122.504 145.241 121.128 145.689 119.272C145.177 120.232 144.665 120.904 144.153 121.288C143.641 121.736 142.617 122.312 141.081 123.016C139.609 123.784 137.497 124.392 134.745 124.84C131.993 125.352 129.241 125.48 126.489 125.224C123.737 125.032 121.209 124.36 118.905 123.208C116.665 122.12 115.161 120.392 114.393 118.024C112.921 113.416 113.113 107.56 114.969 100.456C116.249 95.784 118.553 91.656 121.881 88.072C125.721 83.976 130.073 80.584 134.937 77.896C138.585 75.912 142.105 74.728 145.497 74.344C146.649 74.216 147.641 74.248 148.473 74.44C149.369 74.632 150.297 74.824 151.257 75.016C152.281 75.208 153.241 75.496 154.137 75.88C156.441 76.84 157.593 78.152 157.593 79.816ZM139.833 105.256C140.281 104.36 140.633 103.24 140.889 101.896C141.209 100.552 141.625 99.08 142.137 97.48C136.953 99.592 132.985 102.184 130.233 105.256C127.225 108.648 127.417 110.984 130.809 112.264C133.753 113.032 135.897 112.552 137.241 110.824C137.817 110.056 138.329 109.096 138.777 107.944C139.225 106.792 139.769 105.608 140.409 104.392C140.217 104.712 140.025 105 139.833 105.256ZM199.846 123.304C197.35 125.352 194.374 126.888 190.918 127.912C187.526 129 184.102 129.576 180.646 129.64C177.19 129.704 173.958 129.288 170.95 128.392C167.942 127.496 165.574 126.088 163.846 124.168C161.798 121.992 161.094 119.816 161.734 117.64C162.054 116.744 162.63 116.04 163.462 115.528C164.23 115.016 165.19 114.888 166.342 115.144C167.11 115.208 167.654 115.016 167.974 114.568C168.358 114.056 168.678 113.512 168.934 112.936C169.19 112.296 169.478 111.72 169.798 111.208C170.118 110.632 170.63 110.344 171.334 110.344C182.598 110.664 188.454 109.672 188.902 107.368C188.134 106.664 187.174 106.056 186.022 105.544C184.934 105.032 183.814 104.52 182.662 104.008C179.846 102.728 177.958 101.32 176.998 99.784C175.782 99.144 174.854 97.608 174.214 95.176C173.894 94.088 173.734 92.968 173.734 91.816C173.734 90.664 173.926 89.608 174.31 88.648C174.118 86.152 175.654 83.4 178.918 80.392C179.814 79.56 180.934 78.664 182.278 77.704C183.622 76.744 185.638 75.816 188.326 74.92C191.014 74.024 193.67 73.384 196.294 73C198.982 72.552 201.382 72.392 203.494 72.52C205.67 72.648 207.206 73.16 208.102 74.056C209.062 74.952 209.798 76.072 210.31 77.416C210.886 78.76 211.078 80.072 210.886 81.352C210.374 84.232 208.006 86.216 203.782 87.304C198.47 88.072 195.91 88.776 196.102 89.416C196.102 89.544 195.878 89.704 195.43 89.896C200.358 93.288 203.782 96.616 205.702 99.88C208.326 104.36 208.71 109.352 206.854 114.856C207.174 116.648 205.574 118.888 202.054 121.576C201.222 122.216 200.486 122.792 199.846 123.304ZM257.624 79.816L258.008 79.912C258.136 79.912 258.2 79.944 258.2 80.008C259.864 79.368 261.24 79.848 262.328 81.448C263.032 82.536 263.576 84.2 263.96 86.44C264.088 89.512 263.768 93.768 263 99.208C261.528 110.216 260.728 116.776 260.6 118.888C260.728 121.128 259.352 122.664 256.472 123.496C253.976 124.264 251.48 124.232 248.984 123.4C246.36 122.504 245.272 121.128 245.72 119.272C245.208 120.232 244.696 120.904 244.184 121.288C243.672 121.736 242.648 122.312 241.112 123.016C239.64 123.784 237.528 124.392 234.776 124.84C232.024 125.352 229.272 125.48 226.52 125.224C223.768 125.032 221.24 124.36 218.936 123.208C216.696 122.12 215.192 120.392 214.424 118.024C212.952 113.416 213.144 107.56 215 100.456C216.28 95.784 218.584 91.656 221.912 88.072C225.752 83.976 230.104 80.584 234.968 77.896C238.616 75.912 242.136 74.728 245.528 74.344C246.68 74.216 247.672 74.248 248.504 74.44C249.4 74.632 250.328 74.824 251.288 75.016C252.312 75.208 253.272 75.496 254.168 75.88C256.472 76.84 257.624 78.152 257.624 79.816ZM239.864 105.256C240.312 104.36 240.664 103.24 240.92 101.896C241.24 100.552 241.656 99.08 242.168 97.48C236.984 99.592 233.016 102.184 230.264 105.256C227.256 108.648 227.448 110.984 230.84 112.264C233.784 113.032 235.928 112.552 237.272 110.824C237.848 110.056 238.36 109.096 238.808 107.944C239.256 106.792 239.8 105.608 240.44 104.392C240.248 104.712 240.056 105 239.864 105.256ZM278.469 79.24C278.597 78.024 279.365 77.032 280.773 76.264C282.181 75.496 283.749 75.112 285.477 75.112C287.205 75.112 288.869 75.528 290.469 76.36C292.133 77.128 293.253 78.472 293.829 80.392C299.269 75.656 304.229 73.832 308.709 74.92C310.245 75.24 311.557 76.136 312.645 77.608C315.909 74.472 319.525 72.424 323.493 71.464C328.485 71.272 332.069 72.424 334.245 74.92C334.565 75.24 334.885 75.592 335.205 75.976C336.101 76.936 336.613 77.576 336.741 77.896C337.893 79.688 338.213 83.816 337.701 90.28C336.997 98.664 335.397 107.08 332.901 115.528C331.557 119.816 330.341 122.024 329.253 122.152C328.613 122.28 328.005 122.28 327.429 122.152C326.917 122.024 326.437 121.928 325.989 121.864C325.605 121.864 325.381 122.248 325.317 123.016C324.037 124.68 322.085 125.512 319.461 125.512C316.901 125.512 314.725 124.712 312.933 123.112C310.949 121.448 310.245 119.496 310.821 117.256C311.461 114.952 312.165 112.616 312.933 110.248C313.701 107.816 314.533 105.32 315.429 102.76C316.965 98.28 318.661 93.608 320.517 88.744C319.173 90.28 317.349 93.192 315.045 97.48C312.741 101.704 311.301 104.232 310.725 105.064C309.637 107.24 308.741 108.968 308.037 110.248C307.333 111.464 306.373 112.456 305.157 113.224C304.005 113.928 302.917 114.376 301.893 114.568C300.933 114.76 300.005 114.792 299.109 114.664C296.997 114.344 295.493 113.448 294.597 111.976C294.405 111.464 294.213 110.952 294.021 110.44C293.829 109.928 293.669 109.224 293.541 108.328C293.349 106.344 293.605 103.112 294.309 98.632L294.117 98.92C294.885 98.152 295.141 97.96 294.885 98.344C292.325 101.992 290.789 104.328 290.277 105.352C289.765 106.376 289.221 107.528 288.645 108.808C288.069 110.024 287.397 111.464 286.629 113.128C285.861 114.728 285.253 116.168 284.805 117.448C284.357 118.728 283.813 119.976 283.173 121.192C280.293 126.184 275.237 128.2 268.005 127.24C266.469 127.048 265.157 126.664 264.069 126.088C262.981 125.576 262.533 124.776 262.725 123.688C263.237 121.128 264.421 116.872 266.277 110.92C269.925 99.144 272.101 91.56 272.805 88.168C273.253 87.016 273.637 85.832 273.957 84.616C274.341 83.4 274.725 82.344 275.109 81.448C275.877 79.336 276.997 78.6 278.469 79.24ZM311.781 102.952V103.144C311.909 102.888 311.909 102.824 311.781 102.952ZM372.223 106.792C371.007 107.368 369.823 107.816 368.671 108.136C367.519 108.456 366.175 108.776 364.639 109.096C360.607 109.928 357.695 110.408 355.903 110.536C356.095 111.176 357.055 111.944 358.783 112.84C359.935 113.032 361.183 112.872 362.527 112.36C363.935 111.784 365.375 111.272 366.847 110.824C368.383 110.312 369.855 110.024 371.263 109.96C372.735 109.896 374.111 110.44 375.391 111.592C375.903 112.744 376.319 113.416 376.639 113.608C376.959 113.8 377.247 113.896 377.503 113.896C377.759 113.896 378.047 113.992 378.367 114.184C378.687 114.376 379.135 115.112 379.711 116.392C380.351 117.672 380.191 118.888 379.231 120.04C378.335 121.192 376.927 122.184 375.007 123.016C373.087 123.848 370.847 124.52 368.287 125.032C365.727 125.544 363.167 125.896 360.607 126.088C354.847 126.536 350.463 126.088 347.455 124.744C343.103 123.272 340.287 120.36 339.007 116.008C337.343 110.248 338.271 103.528 341.791 95.848C343.391 92.264 345.919 88.424 349.375 84.328C352.383 80.744 355.743 78.152 359.455 76.552C363.743 74.696 368.223 73.832 372.895 73.96C377.887 74.088 381.343 76.264 383.263 80.488C384.223 82.728 384.415 85.864 383.839 89.896C382.815 95.144 381.471 98.856 379.807 101.032C378.143 103.144 375.615 105.064 372.223 106.792ZM366.655 91.624C363.263 90.92 360.607 92.84 358.687 97.384C358.111 98.6 357.663 99.88 357.343 101.224C359.519 101.48 361.823 100.264 364.255 97.576C365.151 96.488 365.823 95.4 366.271 94.312C366.719 93.16 366.847 92.264 366.655 91.624ZM403.847 117.256C403.463 118.6 403.015 119.784 402.503 120.808C401.991 121.832 401.223 122.792 400.199 123.688C399.175 124.584 397.959 125.416 396.551 126.184C395.143 127.016 393.799 127.592 392.519 127.912C389.575 128.552 388.039 127.688 387.911 125.32C387.719 124.68 387.303 124.296 386.663 124.168C386.087 124.104 385.543 123.944 385.031 123.688C383.687 123.112 383.303 121.544 383.879 118.984C384.903 115.464 386.023 111.208 387.239 106.216C388.455 101.16 390.023 95.624 391.943 89.608C396.487 75.016 402.119 61.864 408.839 50.152C409.287 49.576 409.799 48.84 410.375 47.944C410.951 46.984 411.687 46.12 412.583 45.352C414.823 43.304 417.575 42.824 420.839 43.912C420.775 44.744 420.967 45.512 421.415 46.216C421.863 46.856 422.375 47.528 422.951 48.232C424.423 49.896 425.095 51.4 424.967 52.744C418.183 68.808 412.071 86.76 406.631 106.6C405.991 108.904 405.479 110.92 405.095 112.648C404.711 114.376 404.295 115.912 403.847 117.256ZM426.69 80.008C428.034 79.048 429.698 78.824 431.682 79.336C432.066 79.4 432.45 79.432 432.834 79.432C434.242 76.552 436.674 75.048 440.13 74.92C441.026 74.856 442.274 74.696 443.874 74.44C445.474 74.184 447.394 74.248 449.634 74.632C451.938 75.016 453.954 75.688 455.682 76.648C459.458 78.696 461.73 81.64 462.498 85.48C464.034 91.112 463.81 97.256 461.826 103.912C459.714 111.272 456.13 117.16 451.074 121.576C448.77 123.624 446.338 124.904 443.778 125.416C441.218 125.992 438.914 126.312 436.866 126.376C434.818 126.44 432.93 126.44 431.202 126.376C429.538 126.376 427.906 126.216 426.306 125.896C422.85 125.192 420.002 123.56 417.762 121C415.138 118.12 414.018 113.64 414.402 107.56C414.658 102.184 416.002 96.776 418.434 91.336C420.93 85.832 423.682 82.056 426.69 80.008ZM443.586 99.304C441.986 99.816 440.482 100.04 439.074 99.976C438.37 100.68 437.73 101.448 437.154 102.28C436.642 103.048 435.938 103.784 435.042 104.488C434.146 105.128 433.698 105.384 433.698 105.256C432.61 106.792 431.714 108.392 431.01 110.056C430.306 111.656 430.306 113.288 431.01 114.952C433.57 115.208 435.458 115.144 436.674 114.76C437.89 114.376 439.01 113.64 440.034 112.552C441.122 111.464 441.954 110.184 442.53 108.712C443.682 105.96 444.034 102.824 443.586 99.304Z"
    fill="#100f0f" />
</svg>
